<svg width="26" height="18" viewBox="0 0 26 18" fill="none" xmlns="http://www.w3.org/2000/svg">
<path d="M6.45455 13.9091H5.45455H6.45455ZM17.3636 13.9091H18.3636H17.3636ZM10.8727 12.9091C10.3204 12.9091 9.87273 13.3568 9.87273 13.9091C9.87273 14.4614 10.3204 14.9091 10.8727 14.9091V12.9091ZM16.2727 2.56366H17.2727H16.2727ZM1 0.909119C0.447715 0.909119 0 1.35683 0 1.90912C0 2.4614 0.447715 2.90912 1 2.90912V0.909119ZM6.07273 14.9091C6.62501 14.9091 7.07273 14.4614 7.07273 13.9091C7.07273 13.3568 6.62501 12.9091 6.07273 12.9091V14.9091ZM4.18182 7.90912C4.18182 7.35683 3.7341 6.90912 3.18182 6.90912C2.62953 6.90912 2.18182 7.35683 2.18182 7.90912H4.18182ZM2.09091 4.18185C1.53862 4.18185 1.09091 4.62956 1.09091 5.18185C1.09091 5.73413 1.53862 6.18185 2.09091 6.18185V4.18185ZM6.45455 6.18185C7.00683 6.18185 7.45455 5.73413 7.45455 5.18185C7.45455 4.62956 7.00683 4.18185 6.45455 4.18185V6.18185ZM16.2727 4.18185C15.7204 4.18185 15.2727 4.62956 15.2727 5.18185C15.2727 5.73413 15.7204 6.18185 16.2727 6.18185V4.18185ZM22.3927 5.18185L22.393 4.18185H22.3927V5.18185ZM22.9905 5.57021L23.9044 5.16411L23.9041 5.16354L22.9905 5.57021ZM24.9433 9.96439L24.0294 10.3705L24.0299 10.3716L24.9433 9.96439ZM25 10.2295H26L26 10.2273L25 10.2295ZM25 13.2546H26H25ZM24.3455 13.9091V14.9091V13.9091ZM22.2727 12.9091C21.7204 12.9091 21.2727 13.3568 21.2727 13.9091C21.2727 14.4614 21.7204 14.9091 22.2727 14.9091V12.9091ZM8.63636 17.0909C9.48024 17.0909 10.2895 16.7557 10.8862 16.159L9.47204 14.7448C9.2504 14.9664 8.9498 15.0909 8.63636 15.0909V17.0909ZM10.8862 16.159C11.483 15.5623 11.8182 14.753 11.8182 13.9091H9.81818C9.81818 14.2226 9.69367 14.5232 9.47204 14.7448L10.8862 16.159ZM11.8182 13.9091C11.8182 13.0652 11.483 12.2559 10.8862 11.6592L9.47204 13.0734C9.69367 13.2951 9.81818 13.5957 9.81818 13.9091H11.8182ZM10.8862 11.6592C10.2895 11.0625 9.48024 10.7273 8.63636 10.7273V12.7273C8.9498 12.7273 9.2504 12.8518 9.47204 13.0734L10.8862 11.6592ZM8.63636 10.7273C7.79249 10.7273 6.98318 11.0625 6.38648 11.6592L7.80069 13.0734C8.02233 12.8518 8.32293 12.7273 8.63636 12.7273V10.7273ZM6.38648 11.6592C5.78977 12.2559 5.45455 13.0652 5.45455 13.9091H7.45455C7.45455 13.5957 7.57906 13.2951 7.80069 13.0734L6.38648 11.6592ZM5.45455 13.9091C5.45455 14.753 5.78977 15.5623 6.38648 16.159L7.80069 14.7448C7.57906 14.5232 7.45455 14.2226 7.45455 13.9091H5.45455ZM6.38648 16.159C6.98318 16.7557 7.79249 17.0909 8.63636 17.0909V15.0909C8.32293 15.0909 8.02233 14.9664 7.80069 14.7448L6.38648 16.159ZM19.5455 17.0909C20.3893 17.0909 21.1986 16.7557 21.7953 16.159L20.3811 14.7448C20.1595 14.9664 19.8589 15.0909 19.5455 15.0909V17.0909ZM21.7953 16.159C22.392 15.5623 22.7273 14.753 22.7273 13.9091H20.7273C20.7273 14.2226 20.6028 14.5232 20.3811 14.7448L21.7953 16.159ZM22.7273 13.9091C22.7273 13.0652 22.392 12.2559 21.7953 11.6592L20.3811 13.0734C20.6028 13.2951 20.7273 13.5957 20.7273 13.9091H22.7273ZM21.7953 11.6592C21.1986 11.0625 20.3893 10.7273 19.5455 10.7273V12.7273C19.8589 12.7273 20.1595 12.8518 20.3811 13.0734L21.7953 11.6592ZM19.5455 10.7273C18.7016 10.7273 17.8923 11.0625 17.2956 11.6592L18.7098 13.0734C18.9314 12.8518 19.232 12.7273 19.5455 12.7273V10.7273ZM17.2956 11.6592C16.6989 12.2559 16.3636 13.0652 16.3636 13.9091H18.3636C18.3636 13.5957 18.4881 13.2951 18.7098 13.0734L17.2956 11.6592ZM16.3636 13.9091C16.3636 14.753 16.6989 15.5623 17.2956 16.159L18.7098 14.7448C18.4881 14.5232 18.3636 14.2226 18.3636 13.9091H16.3636ZM17.2956 16.159C17.8923 16.7557 18.7016 17.0909 19.5455 17.0909V15.0909C19.232 15.0909 18.9314 14.9664 18.7098 14.7448L17.2956 16.159ZM10.8727 14.9091H16.2727V12.9091H10.8727V14.9091ZM17.2727 13.9091V2.56366H15.2727V13.9091H17.2727ZM17.2727 2.56366C17.2727 2.12485 17.0984 1.70401 16.7881 1.39372L15.3739 2.80794C15.3091 2.74315 15.2727 2.65528 15.2727 2.56366H17.2727ZM16.7881 1.39372C16.4778 1.08344 16.057 0.909119 15.6182 0.909119V2.90912C15.5266 2.90912 15.4387 2.87272 15.3739 2.80794L16.7881 1.39372ZM15.6182 0.909119H1V2.90912H15.6182V0.909119ZM6.07273 12.9091H3.83636V14.9091H6.07273V12.9091ZM3.83636 12.9091C3.88172 12.9091 3.92664 12.9181 3.96856 12.9354L3.2032 14.7832C3.40394 14.8663 3.61909 14.9091 3.83636 14.9091V12.9091ZM3.96856 12.9354C4.01048 12.9528 4.04856 12.9782 4.08064 13.0103L2.66642 14.4245C2.82006 14.5782 3.00246 14.7 3.2032 14.7832L3.96856 12.9354ZM4.08064 13.0103C4.11272 13.0424 4.13816 13.0805 4.15552 13.1224L2.30776 13.8877C2.39091 14.0885 2.51278 14.2709 2.66642 14.4245L4.08064 13.0103ZM4.15552 13.1224C4.17288 13.1643 4.18182 13.2092 4.18182 13.2546H2.18182C2.18182 13.4718 2.22461 13.687 2.30776 13.8877L4.15552 13.1224ZM4.18182 13.2546V7.90912H2.18182V13.2546H4.18182ZM2.09091 6.18185H6.45455V4.18185H2.09091V6.18185ZM16.2727 6.18185H22.3927V4.18185H16.2727V6.18185ZM22.3925 6.18185C22.3257 6.18183 22.2604 6.16246 22.2044 6.12608L23.2939 4.44892C23.0257 4.27469 22.7128 4.18192 22.393 4.18185L22.3925 6.18185ZM22.2044 6.12608C22.1484 6.08971 22.1041 6.03789 22.077 5.97688L23.9041 5.16354C23.7741 4.87136 23.5621 4.62314 23.2939 4.44892L22.2044 6.12608ZM22.0767 5.97631L24.0294 10.3705L25.8571 9.5583L23.9044 5.16411L22.0767 5.97631ZM24.0299 10.3716C24.0103 10.3276 24.0001 10.2799 24 10.2317L26 10.2273C25.9995 9.99634 25.9506 9.76808 25.8566 9.55717L24.0299 10.3716ZM24 10.2295V13.2546H26V10.2295H24ZM24 13.2546C24 13.2092 24.0089 13.1643 24.0263 13.1224L25.8741 13.8877C25.9572 13.687 26 13.4718 26 13.2546H24ZM24.0263 13.1224C24.0437 13.0805 24.0691 13.0424 24.1012 13.0103L25.5154 14.4245C25.669 14.2709 25.7909 14.0885 25.8741 13.8877L24.0263 13.1224ZM24.1012 13.0103C24.1333 12.9782 24.1713 12.9528 24.2133 12.9354L24.9786 14.7832C25.1794 14.7 25.3618 14.5782 25.5154 14.4245L24.1012 13.0103ZM24.2133 12.9354C24.2552 12.9181 24.3001 12.9091 24.3455 12.9091V14.9091C24.5627 14.9091 24.7779 14.8663 24.9786 14.7832L24.2133 12.9354ZM24.3455 12.9091H22.2727V14.9091H24.3455V12.9091ZM16.2727 14.9091H17.3636V12.9091H16.2727V14.9091Z" fill="#95CA00"/>
</svg>
