<svg width="20" height="22" viewBox="0 0 20 22" fill="none" xmlns="http://www.w3.org/2000/svg">
<path d="M15.0001 12C14.4478 12 14.0001 12.4477 14.0001 13C14.0001 13.5523 14.4478 14 15.0001 14V12ZM15.3521 13L15.3523 12H15.3521V13ZM18.3281 15.628L17.3358 15.752L17.3358 15.7522L18.3281 15.628ZM18.7191 18.752L19.7113 18.628L19.7113 18.6278L18.7191 18.752ZM16.7341 21L16.7343 20H16.7341V21ZM3.26606 21V20H3.26584L3.26606 21ZM1.28106 18.752L2.27334 18.876L2.27336 18.8759L1.28106 18.752ZM1.67106 15.628L0.678779 15.504L0.678763 15.5041L1.67106 15.628ZM4.64906 13L4.64868 14H4.64906V13ZM5.00006 14C5.55235 14 6.00006 13.5523 6.00006 13C6.00006 12.4477 5.55235 12 5.00006 12V14ZM14.0001 6C14.0001 8.20914 12.2092 10 10.0001 10V12C13.3138 12 16.0001 9.31371 16.0001 6H14.0001ZM10.0001 10C7.79092 10 6.00006 8.20914 6.00006 6H4.00006C4.00006 9.31371 6.68635 12 10.0001 12V10ZM6.00006 6C6.00006 3.79086 7.79092 2 10.0001 2V0C6.68635 0 4.00006 2.68629 4.00006 6H6.00006ZM10.0001 2C12.2092 2 14.0001 3.79086 14.0001 6H16.0001C16.0001 2.68629 13.3138 0 10.0001 0V2ZM15.0001 14H15.3521V12H15.0001V14ZM15.3518 14C15.8392 14.0001 16.3097 14.1782 16.6751 14.5009L17.9989 13.0017C17.2682 12.3565 16.3271 12.0003 15.3523 12L15.3518 14ZM16.6751 14.5009C17.0404 14.8235 17.2753 15.2684 17.3358 15.752L19.3203 15.504C19.1995 14.5368 18.7296 13.6469 17.9989 13.0017L16.6751 14.5009ZM17.3358 15.7522L17.7268 18.8762L19.7113 18.6278L19.3203 15.5038L17.3358 15.7522ZM17.7268 18.876C17.7444 19.0167 17.7318 19.1596 17.69 19.2951L19.6009 19.8852C19.7265 19.4787 19.7641 19.0501 19.7113 18.628L17.7268 18.876ZM17.69 19.2951C17.6481 19.4306 17.578 19.5556 17.4841 19.6619L18.9833 20.9857C19.2649 20.6668 19.4754 20.2916 19.6009 19.8852L17.69 19.2951ZM17.4841 19.6619C17.3902 19.7682 17.2748 19.8533 17.1456 19.9116L17.9677 21.7348C18.3555 21.56 18.7017 21.3046 18.9833 20.9857L17.4841 19.6619ZM17.1456 19.9116C17.0163 19.9699 16.8761 20 16.7343 20L16.7338 22C17.1593 22.0001 17.5799 21.9097 17.9677 21.7348L17.1456 19.9116ZM16.7341 20H3.26606V22H16.7341V20ZM3.26584 20C3.12403 20 2.98384 19.9699 2.85457 19.9116L2.03245 21.7348C2.42027 21.9097 2.84085 22.0001 3.26628 22L3.26584 20ZM2.85457 19.9116C2.72529 19.8533 2.60989 19.7682 2.51603 19.6619L1.01684 20.9857C1.29843 21.3046 1.64463 21.5599 2.03245 21.7348L2.85457 19.9116ZM2.51603 19.6619C2.42217 19.5556 2.35199 19.4306 2.31015 19.2951L0.399185 19.8852C0.524709 20.2917 0.735252 20.6668 1.01684 20.9857L2.51603 19.6619ZM2.31015 19.2951C2.2683 19.1596 2.25576 19.0167 2.27334 18.876L0.288778 18.628C0.236025 19.0501 0.273661 19.4787 0.399185 19.8852L2.31015 19.2951ZM2.27336 18.8759L2.66336 15.7519L0.678763 15.5041L0.288763 18.6281L2.27336 18.8759ZM2.66334 15.752C2.72381 15.2681 2.95895 14.8231 3.32456 14.5004L2.00122 13.0008C1.27 13.6461 0.799707 14.5363 0.678779 15.504L2.66334 15.752ZM3.32456 14.5004C3.69018 14.1778 4.16106 13.9998 4.64868 14L4.64945 12C3.67421 11.9996 2.73244 12.3555 2.00122 13.0008L3.32456 14.5004ZM4.64906 14H5.00006V12H4.64906V14Z" fill="#C0C0CA"/>
</svg>
