<svg width="21" height="20" viewBox="0 0 21 20" fill="none" xmlns="http://www.w3.org/2000/svg">
<path d="M4.20257 0.790514H4.99308C6.73944 0.790514 8.15514 2.20622 8.15514 3.95257V7.90514H4.20257C2.45622 7.90514 1.04051 6.48944 1.04051 4.74308V3.95257C1.04051 2.20622 2.45622 0.790514 4.20257 0.790514Z" stroke="#C0C0CA" stroke-width="1.58103"/>
<path d="M16.2974 19.2095H15.5069C13.7606 19.2095 12.3449 17.7938 12.3449 16.0474V12.0949H16.2974C18.0438 12.0949 19.4595 13.5106 19.4595 15.2569V16.0474C19.4595 17.7938 18.0438 19.2095 16.2974 19.2095Z" stroke="#C0C0CA" stroke-width="1.58103"/>
<path d="M16.2974 0.790514H15.5069C13.7606 0.790514 12.3449 2.20622 12.3449 3.95257V7.90514H16.2974C18.0438 7.90514 19.4595 6.48944 19.4595 4.74308V3.95257C19.4595 2.20622 18.0438 0.790514 16.2974 0.790514Z" stroke="#C0C0CA" stroke-width="1.58103"/>
<path d="M4.20257 19.2095H4.99308C6.73944 19.2095 8.15514 17.7938 8.15514 16.0474V12.0949H4.20257C2.45622 12.0949 1.04051 13.5106 1.04051 15.2569V16.0474C1.04051 17.7938 2.45622 19.2095 4.20257 19.2095Z" stroke="#C0C0CA" stroke-width="1.58103"/>
</svg>
