<svg width="21" height="19" viewBox="0 0 21 19" fill="none" xmlns="http://www.w3.org/2000/svg">
<path d="M20.4557 4.2227C20.2773 3.9067 20.0217 3.64336 19.714 3.45837C19.4063 3.27338 19.0569 3.17306 18.7 3.16718H5.48021L4.88118 0.781705C4.82066 0.55143 4.68564 0.348882 4.4981 0.207049C4.31056 0.0652167 4.08155 -0.00754355 3.84839 0.000619042H1.7828C1.50888 0.000619042 1.24619 0.111825 1.0525 0.309774C0.858812 0.507723 0.75 0.776199 0.75 1.05614C0.75 1.33608 0.858812 1.60456 1.0525 1.80251C1.24619 2.00045 1.50888 2.11166 1.7828 2.11166H3.06346L5.91398 12.9413C5.9745 13.1716 6.10953 13.3741 6.29707 13.516C6.48461 13.6578 6.71361 13.7306 6.94678 13.7224H16.2419C16.4327 13.7218 16.6195 13.6672 16.7817 13.5648C16.944 13.4623 17.0753 13.3159 17.1611 13.1419L20.5487 6.21764C20.6955 5.90311 20.7639 5.55632 20.7477 5.20823C20.7314 4.86013 20.6312 4.52155 20.4557 4.2227ZM15.6016 11.6114H7.7317L6.04824 5.27822H18.7L15.6016 11.6114Z" fill="#C0C0CA"/>
<path d="M6.43038 19C7.28597 19 7.97957 18.2911 7.97957 17.4167C7.97957 16.5423 7.28597 15.8334 6.43038 15.8334C5.57478 15.8334 4.88118 16.5423 4.88118 17.4167C4.88118 18.2911 5.57478 19 6.43038 19Z" fill="#C0C0CA"/>
<path d="M16.7583 19C17.6139 19 18.3075 18.2911 18.3075 17.4167C18.3075 16.5423 17.6139 15.8334 16.7583 15.8334C15.9027 15.8334 15.2091 16.5423 15.2091 17.4167C15.2091 18.2911 15.9027 19 16.7583 19Z" fill="#C0C0CA"/>
</svg>
