<svg width="69" height="73" viewBox="0 0 69 73" fill="none" xmlns="http://www.w3.org/2000/svg">
<path d="M3.72235 17.015C7.23395 13.0016 24.8011 2.71922 31.7057 0.437965C33.446 -0.119974 35.3133 -0.1454 37.0682 0.364959C43.6808 2.42873 61.0243 12.518 65.0713 16.7641C65.8729 17.6209 66.4717 18.6469 66.8233 19.7663C68.522 25.2732 68.5813 46.1025 66.9875 52.6071C66.593 54.131 65.7876 55.5172 64.6591 56.6145C59.9445 61.098 43.0633 70.8449 36.8279 72.6821C35.2512 73.1189 33.5837 73.1053 32.0144 72.6426C25.7593 70.7248 9.46655 61.3352 4.5208 56.7727C3.27816 55.6109 2.39464 54.1173 1.97493 52.4687C0.400869 45.6904 0.493634 24.75 2.23955 19.5792C2.56579 18.6377 3.06909 17.7674 3.72235 17.015Z" fill="black"/>
<path d="M20.3284 33.5313C22.5823 38.9729 30.6138 47.0972 36.796 43.0381C44.6313 37.9037 39.1533 26.5872 33.8486 21.4894C32.5759 20.2363 31.0689 19.2462 29.4135 18.5756C27.7581 17.9051 25.9869 17.5672 24.2009 17.5814C22.4149 17.5955 20.6492 17.9613 19.0047 18.658C17.3601 19.3546 15.8689 20.3684 14.6162 21.6414C14.4914 21.7662 14.3713 21.8954 14.2512 22.0262C10.0293 26.8107 10.3609 33.6332 12.928 39.1797C16.338 46.8691 21.8829 53.4184 28.9044 58.0502C35.99 62.6127 44.9705 54.4413 48.7802 49.0773C51.8097 44.7612 64.2288 24.9979 54.0301 21.1335C46.5385 18.288 39.4392 26.7605 36.8158 32.6705C36.2409 33.9982 39.6065 32.8986 39.9654 31.8782C45.0845 20.4308 53.9282 26.423 51.7793 35.8673C50.2508 42.3765 42.5843 57.3385 34.8098 54.6436C27.7622 52.1935 14.8732 35.7624 15.2062 27.1408C15.518 19.3845 24.0773 20.7533 28.693 24.8276C33.7117 29.2715 38.4644 40.5287 34.1285 40.0922C29.7926 39.6557 25.6635 34.2309 24.0499 30.5535C23.7138 29.7931 19.8204 32.1945 20.371 33.5131L20.3284 33.5313Z" fill="#C2D500"/>
</svg>
